<svg class="close-icon" width="19" height="19" viewBox="0 0 19 19" fill="currentColor" xmlns="http://www.w3.org/2000/svg">
  <mask id="path-1-inside-1_710_83" fill="white">
    <path fill-rule="evenodd" clip-rule="evenodd" d="M0.87868 0.87868C-0.292893 2.05025 -0.292893 3.94975 0.87868 5.12132L5.12135 9.36399L0.878733 13.6066C-0.29284 14.7782 -0.29284 16.6777 0.878733 17.8492C2.05031 19.0208 3.9498 19.0208 5.12137 17.8492L9.36399 13.6066L13.6066 17.8492C14.7782 19.0208 16.6777 19.0208 17.8492 17.8492C19.0208 16.6777 19.0208 14.7782 17.8492 13.6066L13.6066 9.36399L17.8493 5.12132C19.0209 3.94975 19.0209 2.05025 17.8493 0.87868C16.6777 -0.292893 14.7782 -0.292893 13.6067 0.87868L9.36399 5.12135L5.12132 0.87868C3.94975 -0.292893 2.05025 -0.292893 0.87868 0.87868Z"/>
  </mask>
  <path fill-rule="evenodd" clip-rule="evenodd" d="M0.87868 0.87868C-0.292893 2.05025 -0.292893 3.94975 0.87868 5.12132L5.12135 9.36399L0.878733 13.6066C-0.29284 14.7782 -0.29284 16.6777 0.878733 17.8492C2.05031 19.0208 3.9498 19.0208 5.12137 17.8492L9.36399 13.6066L13.6066 17.8492C14.7782 19.0208 16.6777 19.0208 17.8492 17.8492C19.0208 16.6777 19.0208 14.7782 17.8492 13.6066L13.6066 9.36399L17.8493 5.12132C19.0209 3.94975 19.0209 2.05025 17.8493 0.87868C16.6777 -0.292893 14.7782 -0.292893 13.6067 0.87868L9.36399 5.12135L5.12132 0.87868C3.94975 -0.292893 2.05025 -0.292893 0.87868 0.87868Z" fill="currentColor"/>
  <path d="M0.87868 5.12132L-0.535534 6.53553H-0.535534L0.87868 5.12132ZM0.87868 0.87868L2.29289 2.29289L0.87868 0.87868ZM5.12135 9.36399L6.53556 10.7782L7.94977 9.36399L6.53556 7.94977L5.12135 9.36399ZM0.878733 13.6066L2.29295 15.0208L0.878733 13.6066ZM0.878733 17.8492L-0.535481 19.2635L-0.53548 19.2635L0.878733 17.8492ZM5.12137 17.8492L6.53559 19.2635H6.53559L5.12137 17.8492ZM9.36399 13.6066L10.7782 12.1924L9.36399 10.7782L7.94977 12.1924L9.36399 13.6066ZM13.6066 17.8492L15.0208 16.435H15.0208L13.6066 17.8492ZM17.8492 17.8492L16.435 16.435L16.435 16.435L17.8492 17.8492ZM17.8492 13.6066L16.435 15.0208V15.0208L17.8492 13.6066ZM13.6066 9.36399L12.1924 7.94977L10.7782 9.36399L12.1924 10.7782L13.6066 9.36399ZM17.8493 5.12132L16.4351 3.70711V3.70711L17.8493 5.12132ZM17.8493 0.87868L16.4351 2.29289L16.4351 2.29289L17.8493 0.87868ZM13.6067 0.87868L12.1924 -0.535534V-0.535534L13.6067 0.87868ZM9.36399 5.12135L7.94977 6.53556L9.36399 7.94977L10.7782 6.53556L9.36399 5.12135ZM5.12132 0.87868L6.53553 -0.535534V-0.535534L5.12132 0.87868ZM2.29289 3.70711C1.90237 3.31658 1.90237 2.68342 2.29289 2.29289L-0.535534 -0.535534C-2.48816 1.41709 -2.48816 4.58291 -0.535534 6.53553L2.29289 3.70711ZM6.53556 7.94977L2.29289 3.70711L-0.535534 6.53553L3.70713 10.7782L6.53556 7.94977ZM2.29295 15.0208L6.53556 10.7782L3.70713 7.94977L-0.535481 12.1924L2.29295 15.0208ZM2.29295 16.435C1.90242 16.0445 1.90242 15.4113 2.29295 15.0208L-0.535481 12.1924C-2.4881 14.145 -2.4881 17.3108 -0.535481 19.2635L2.29295 16.435ZM3.70716 16.435C3.31664 16.8256 2.68347 16.8256 2.29295 16.435L-0.53548 19.2635C1.41714 21.2161 4.58296 21.2161 6.53559 19.2635L3.70716 16.435ZM7.94977 12.1924L3.70716 16.435L6.53559 19.2635L10.7782 15.0208L7.94977 12.1924ZM15.0208 16.435L10.7782 12.1924L7.94977 15.0208L12.1924 19.2635L15.0208 16.435ZM16.435 16.435C16.0445 16.8256 15.4113 16.8256 15.0208 16.435L12.1924 19.2635C14.145 21.2161 17.3108 21.2161 19.2635 19.2635L16.435 16.435ZM16.435 15.0208C16.8256 15.4113 16.8256 16.0445 16.435 16.435L19.2635 19.2635C21.2161 17.3108 21.2161 14.145 19.2635 12.1924L16.435 15.0208ZM12.1924 10.7782L16.435 15.0208L19.2635 12.1924L15.0208 7.94977L12.1924 10.7782ZM16.4351 3.70711L12.1924 7.94977L15.0208 10.7782L19.2635 6.53553L16.4351 3.70711ZM16.4351 2.29289C16.8256 2.68342 16.8256 3.31658 16.4351 3.70711L19.2635 6.53553C21.2161 4.58291 21.2161 1.41709 19.2635 -0.535534L16.4351 2.29289ZM15.0209 2.29289C15.4114 1.90237 16.0446 1.90237 16.4351 2.29289L19.2635 -0.535533C17.3109 -2.48816 14.1451 -2.48815 12.1924 -0.535534L15.0209 2.29289ZM10.7782 6.53556L15.0209 2.29289L12.1924 -0.535534L7.94977 3.70713L10.7782 6.53556ZM3.70711 2.29289L7.94977 6.53556L10.7782 3.70713L6.53553 -0.535534L3.70711 2.29289ZM2.29289 2.29289C2.68342 1.90237 3.31658 1.90237 3.70711 2.29289L6.53553 -0.535534C4.58291 -2.48816 1.41709 -2.48816 -0.535534 -0.535534L2.29289 2.29289Z" fill="var(--text-color)" mask="url(#path-1-inside-1_710_83)"/>
</svg>
