<svg width="30" height="24" viewBox="0 0 30 24" fill="currentColor" xmlns="http://www.w3.org/2000/svg">
<mask id="path-1-inside-1_499_33" fill="white">
<path fill-rule="evenodd" clip-rule="evenodd" d="M28.8768 1.16274C27.4892 -0.0317278 25.3961 0.124795 24.2016 1.51234L11.9674 15.7242L5.90075 10.5017C4.62884 9.40682 2.71014 9.5503 1.61521 10.8222C0.520286 12.0941 0.663766 14.0128 1.93568 15.1078L9.42674 21.5564C9.45541 21.5842 9.48507 21.6113 9.51573 21.6377L11.0903 22.9932C11.9274 23.7138 13.1902 23.6194 13.9108 22.7823L29.1681 5.05869C30.1635 3.9024 30.0331 2.15812 28.8768 1.16274Z"/>
</mask>
<path fill-rule="evenodd" clip-rule="evenodd" d="M28.8768 1.16274C27.4892 -0.0317278 25.3961 0.124795 24.2016 1.51234L11.9674 15.7242L5.90075 10.5017C4.62884 9.40682 2.71014 9.5503 1.61521 10.8222C0.520286 12.0941 0.663766 14.0128 1.93568 15.1078L9.42674 21.5564C9.45541 21.5842 9.48507 21.6113 9.51573 21.6377L11.0903 22.9932C11.9274 23.7138 13.1902 23.6194 13.9108 22.7823L29.1681 5.05869C30.1635 3.9024 30.0331 2.15812 28.8768 1.16274Z" fill="currentColor"/>
<path d="M24.2016 1.51234L22.6859 0.207522L22.6859 0.207523L24.2016 1.51234ZM28.8768 1.16274L30.1816 -0.352998L30.1816 -0.352999L28.8768 1.16274ZM11.9674 15.7242L10.6626 17.2399L12.1783 18.5447L13.4831 17.029L11.9674 15.7242ZM5.90075 10.5017L4.59594 12.0175L4.59594 12.0175L5.90075 10.5017ZM1.61521 10.8222L0.0994754 9.5174L0.0994751 9.5174L1.61521 10.8222ZM1.93568 15.1078L0.630865 16.6235L0.630865 16.6235L1.93568 15.1078ZM9.42674 21.5564L10.8191 20.1207L10.7765 20.0794L10.7316 20.0407L9.42674 21.5564ZM9.51573 21.6377L10.8205 20.122L10.8205 20.122L9.51573 21.6377ZM11.0903 22.9932L9.78545 24.5089L11.0903 22.9932ZM13.9108 22.7823L15.4266 24.0871L13.9108 22.7823ZM29.1681 5.05869L27.6524 3.75387L27.6524 3.75387L29.1681 5.05869ZM25.7174 2.81716C26.1912 2.26673 27.0215 2.20464 27.572 2.67847L30.1816 -0.352999C27.9569 -2.26809 24.601 -2.01714 22.6859 0.207522L25.7174 2.81716ZM13.4831 17.029L25.7174 2.81716L22.6859 0.207523L10.4517 14.4194L13.4831 17.029ZM4.59594 12.0175L10.6626 17.2399L13.2722 14.2085L7.20557 8.98601L4.59594 12.0175ZM3.13095 12.127C3.50524 11.6922 4.16114 11.6432 4.59594 12.0175L7.20557 8.98601C5.09654 7.17045 1.91503 7.40836 0.0994754 9.5174L3.13095 12.127ZM3.2405 13.592C2.8057 13.2177 2.75665 12.5618 3.13095 12.127L0.0994751 9.5174C-1.71608 11.6264 -1.47817 14.8079 0.630865 16.6235L3.2405 13.592ZM10.7316 20.0407L3.2405 13.592L0.630865 16.6235L8.12193 23.0722L10.7316 20.0407ZM10.8205 20.122C10.8199 20.1215 10.8195 20.121 10.8191 20.1207L8.03435 22.9921C8.09134 23.0474 8.15021 23.1012 8.21092 23.1535L10.8205 20.122ZM12.3951 21.4774L10.8205 20.122L8.21091 23.1535L9.78545 24.5089L12.3951 21.4774ZM12.3951 21.4774L12.3951 21.4774L9.78545 24.5089C11.4597 25.9502 13.9853 25.7613 15.4266 24.0871L12.3951 21.4774ZM27.6524 3.75387L12.3951 21.4774L15.4266 24.0871L30.6838 6.3635L27.6524 3.75387ZM27.572 2.67847C27.8911 2.95323 27.9271 3.4347 27.6524 3.75387L30.6838 6.3635C32.3999 4.3701 32.175 1.36302 30.1816 -0.352998L27.572 2.67847Z" fill="#5A6B7F" mask="url(#path-1-inside-1_499_33)"/>
</svg>
